<svg xmlns="http://www.w3.org/2000/svg" xmlns:xlink="http://www.w3.org/1999/xlink" viewBox="0,0,256,256" width="50px" height="50px"><g fill="#ffffff" fill-rule="nonzero" stroke="none" stroke-width="1" stroke-linecap="butt" stroke-linejoin="miter" stroke-miterlimit="10" stroke-dasharray="" stroke-dashoffset="0" font-family="none" font-weight="none" font-size="none" text-anchor="none" style="mix-blend-mode: normal"><g transform="scale(5.12,5.12)"><path d="M24.96094,2.10156c-0.20852,0.00805 -0.4093,0.08112 -0.57422,0.20898l-23,17.90039c-0.29773,0.21363 -0.45479,0.57298 -0.40934,0.93659c0.04544,0.36361 0.28611,0.67326 0.62726,0.80704c0.34115,0.13378 0.72815,0.07028 1.00865,-0.16551l1.38672,-1.08008v27.29102c0.00006,0.55226 0.44774,0.99994 1,1h13.83203c0.10799,0.01785 0.21818,0.01785 0.32617,0h11.67383c0.10799,0.01785 0.21818,0.01785 0.32617,0h13.8418c0.55226,-0.00006 0.99994,-0.44774 1,-1v-27.29102l1.38672,1.08008c0.2805,0.23579 0.6675,0.2993 1.00865,0.16551c0.34115,-0.13378 0.58181,-0.44343 0.62726,-0.80704c0.04544,-0.36362 -0.11161,-0.72297 -0.40935,-0.93659l-23,-17.90039c-0.18607,-0.14428 -0.41707,-0.21828 -0.65234,-0.20898zM25,4.36719l19,14.78711v27.8457h-12v-18c-0.00006,-0.55226 -0.44774,-0.99994 -1,-1h-12c-0.55226,0.00006 -0.99994,0.44774 -1,1v18h-12v-27.8457zM20,30h10v17h-10z"></path></g></g></svg>